<?xml version="1.0" encoding="utf-8"?>
<!-- Generator: Adobe Illustrator 24.3.0, SVG Export Plug-In . SVG Version: 6.00 Build 0)  -->
<svg version="1.1" id="Calque_1" xmlns="http://www.w3.org/2000/svg" xmlns:xlink="http://www.w3.org/1999/xlink" x="0px" y="0px"
	 viewBox="0 0 128 128" style="enable-background:new 0 0 128 128;" xml:space="preserve">
<style type="text/css">
	.st0{display:none;}
	.st1{display:inline;}
	.st2{fill:#417ECE;}
	.st3{fill:#FFFFFF;}
</style>
<g id="Calque_2_1_" class="st0">
	<path class="st1" d="M119,80.89c0,3.44-2.87,77.57-6.41,77.57s-6.41-74.12-6.41-77.57c0-3.44,2.87-6.24,6.41-6.24
		S119,77.44,119,80.89z"/>
	<circle class="st1" cx="112.59" cy="69.65" r="10.01"/>
	<path class="st1" d="M141.84,81.55c0,3.44-2.87,77.57-6.41,77.57c-3.54,0-6.41-74.12-6.41-77.57s2.87-6.24,6.41-6.24
		C138.97,75.32,141.84,78.11,141.84,81.55z"/>
	<circle class="st1" cx="135.42" cy="70.32" r="10.01"/>
</g>
<path class="st2" d="M71.03,7.37l13.95,28.27c1.06,2.14,3.1,3.62,5.46,3.97l31.2,4.53c5.95,0.86,8.32,8.17,4.02,12.37l-22.58,22.01
	c-1.71,1.67-2.49,4.07-2.09,6.42l5.33,31.08c1.02,5.92-5.2,10.44-10.52,7.64l-27.9-14.67c-2.11-1.11-4.64-1.11-6.75,0l-27.91,14.67
	c-5.32,2.8-11.54-1.72-10.52-7.64l5.33-31.08c0.4-2.35-0.38-4.75-2.09-6.42L3.39,56.51c-4.3-4.2-1.93-11.5,4.02-12.37l31.2-4.53
	c2.36-0.34,4.4-1.83,5.46-3.97L58.02,7.37C60.68,1.98,68.37,1.98,71.03,7.37z"/>
<path class="st2" d="M15.64,5.57c-3.43-3.64-9.17-3.8-12.8-0.37s-3.8,9.17-0.37,12.8c2.13,2.26,5.16,3.18,8.01,2.72
	c0.22,0.89,0.67,1.72,1.33,2.43c2.14,2.26,50.07,49.23,52.39,47.03c2.33-2.2-41.82-52.73-43.96-54.99c-0.67-0.71-1.48-1.2-2.35-1.47
	C18.52,10.9,17.78,7.83,15.64,5.57z"/>
<path class="st3" d="M38.61,39.61l-8.58,1.25C44.6,54.76,62.8,71.52,64.21,70.19c1.28-1.2-11.4-16.92-23.47-31.25
	C40.07,39.26,39.36,39.5,38.61,39.61z"/>
</svg>
