<?xml version="1.0" encoding="utf-8"?>
<!-- Generator: Adobe Illustrator 24.3.0, SVG Export Plug-In . SVG Version: 6.00 Build 0)  -->
<svg version="1.1" xmlns="http://www.w3.org/2000/svg" xmlns:xlink="http://www.w3.org/1999/xlink" x="0px" y="0px"
	 viewBox="0 0 128 128" style="enable-background:new 0 0 128 128;" xml:space="preserve">
<style type="text/css">
	.st0{display:none;}
	.st1{display:inline;fill:#417ECE;}
	.st2{display:inline;}
	.st3{fill:#417ECE;}
</style>
<g id="Calque_2" class="st0">
	<circle class="st1" cx="64" cy="64" r="64"/>
	<circle class="st1" cx="64" cy="-6.4" r="21.3"/>
	<circle class="st1" cx="3" cy="28.8" r="21.3"/>
	<circle class="st1" cx="3" cy="99.2" r="21.3"/>
	<circle class="st1" cx="64" cy="134.4" r="21.3"/>
	<circle class="st1" cx="125" cy="99.2" r="21.3"/>
	<circle class="st1" cx="125" cy="28.8" r="21.3"/>
</g>
<g id="Calque_1">
	<g id="Calque_2_1_" class="st0">
		<path class="st2" d="M119,80.9c0,3.4-2.9,77.6-6.4,77.6s-6.4-74.1-6.4-77.6c0-3.4,2.9-6.2,6.4-6.2S119,77.4,119,80.9z"/>
		<circle class="st2" cx="112.6" cy="69.7" r="10"/>
		<path class="st2" d="M141.8,81.6c0,3.4-2.9,77.6-6.4,77.6c-3.5,0-6.4-74.1-6.4-77.6s2.9-6.2,6.4-6.2
			C139,75.3,141.8,78.1,141.8,81.6z"/>
		<circle class="st2" cx="135.4" cy="70.3" r="10"/>
	</g>
	<path class="st3" d="M126.4,50c-7.8,0.5-15.7-3.3-19.8-10.6c-4.2-7.3-3.6-15.9,0.8-22.5c-6.9-6.3-15.1-11.2-24.3-14.1
		C79.6,9.9,72.4,14.8,64,14.8S48.4,9.9,44.9,2.9c-9.2,2.9-17.4,7.7-24.3,14.1c4.4,6.5,5,15.2,0.8,22.5C17.2,46.7,9.4,50.5,1.6,50
		C0.6,54.5,0,59.2,0,64s0.6,9.5,1.6,14c7.8-0.5,15.7,3.3,19.8,10.6c4.2,7.3,3.6,15.9-0.8,22.5c6.9,6.3,15.1,11.2,24.3,14.1
		c3.5-7.1,10.7-11.9,19.1-11.9s15.6,4.9,19.1,11.9c9.2-2.9,17.4-7.7,24.3-14.1c-4.4-6.5-5-15.2-0.8-22.5c4.2-7.3,12-11.1,19.8-10.6
		c1-4.5,1.6-9.2,1.6-14S127.4,54.5,126.4,50z"/>
</g>
</svg>
